<?xml version="1.0" encoding="UTF-8"?>
<svg version="1.1" xmlns="http://www.w3.org/2000/svg" width="1508" height="1272">
<path d="M0 0 C1.60070096 0.15670992 3.20140448 0.31339368 4.80211055 0.47005141 C86.66336896 8.52905063 166.00367204 23.95031646 244.625 48.375 C243.6854922 49.64671283 242.74330877 50.91644922 241.80002499 52.18536377 C241.275639 52.89266254 240.75125301 53.59996132 240.21097654 54.32869339 C237.98117682 57.20569301 235.50751266 59.74993635 232.91430664 62.296875 C232.37847458 62.83139282 231.84264252 63.36591064 231.29057312 63.91662598 C229.54335283 65.65743106 227.78925485 67.39112858 226.03515625 69.125 C224.80445312 70.34941835 223.5742733 71.57436289 222.34458923 72.79980469 C219.12116563 76.00999771 215.89221051 79.21456221 212.66156006 82.41748047 C207.49464883 87.54109847 202.33450773 92.67151105 197.17770195 97.80529785 C195.38831183 99.5845742 193.59549008 101.36033576 191.80226135 103.13574219 C186.85180804 108.04979725 182.00848096 112.98522852 177.47874451 118.29516602 C173.60577482 122.64049728 169.41380601 126.69265419 165.28346252 130.79170227 C163.55627324 132.50594586 161.8323868 134.22345302 160.10925293 135.94177246 C155.83190193 140.20586477 151.54908241 144.46445061 147.26641846 148.72320557 C143.63602552 152.33375702 140.00776463 155.94642642 136.38221741 159.56184387 C134.6966171 161.24103635 133.00799859 162.91715076 131.31921387 164.59313965 C126.53574004 169.35402501 121.87763417 174.15302041 117.48962402 179.28552246 C113.66852048 183.56740982 109.54120698 187.56544084 105.46865845 191.60650635 C103.77507138 193.2871424 102.08479223 194.97104629 100.39526367 196.65576172 C96.20138982 200.83638011 92.00204601 205.0114898 87.80285645 209.18676758 C84.24292169 212.72685717 80.68512179 216.26906722 77.1300354 219.81402588 C75.47767468 221.45998106 73.82229535 223.10285645 72.16674805 224.74560547 C65.97608038 230.89978004 65.97608038 230.89978004 60.125 237.375 C55.84337475 242.38039781 51.14079913 246.97048386 46.46865845 251.60650635 C44.77507138 253.2871424 43.08479223 254.97104629 41.39526367 256.65576172 C37.20138982 260.83638011 33.00204601 265.0114898 28.80285645 269.18676758 C25.24292169 272.72685717 21.68512179 276.26906722 18.1300354 279.81402588 C16.47767468 281.45998106 14.82229535 283.10285645 13.16674805 284.74560547 C6.97608038 290.89978004 6.97608038 290.89978004 1.125 297.375 C-3.15662525 302.38039781 -7.85920087 306.97048386 -12.53134155 311.60650635 C-14.22492862 313.2871424 -15.91520777 314.97104629 -17.60473633 316.65576172 C-21.79861018 320.83638011 -25.99795399 325.0114898 -30.19714355 329.18676758 C-33.75707831 332.72685717 -37.31487821 336.26906722 -40.8699646 339.81402588 C-42.52232532 341.45998106 -44.17770465 343.10285645 -45.83325195 344.74560547 C-52.02391962 350.89978004 -52.02391962 350.89978004 -57.875 357.375 C-62.15662525 362.38039781 -66.85920087 366.97048386 -71.53134155 371.60650635 C-73.22492862 373.2871424 -74.91520777 374.97104629 -76.60473633 376.65576172 C-80.79861018 380.83638011 -84.99795399 385.0114898 -89.19714355 389.18676758 C-92.75707831 392.72685717 -96.31487821 396.26906722 -99.8699646 399.81402588 C-101.52232532 401.45998106 -103.17770465 403.10285645 -104.83325195 404.74560547 C-111.02391962 410.89978004 -111.02391962 410.89978004 -116.875 417.375 C-121.15662525 422.38039781 -125.85920087 426.97048386 -130.53134155 431.60650635 C-132.22492862 433.2871424 -133.91520777 434.97104629 -135.60473633 436.65576172 C-139.79861018 440.83638011 -143.99795399 445.0114898 -148.19714355 449.18676758 C-151.75707831 452.72685717 -155.31487821 456.26906722 -158.8699646 459.81402588 C-160.52232532 461.45998106 -162.17770465 463.10285645 -163.83325195 464.74560547 C-170.01747168 470.89261533 -170.01747168 470.89261533 -175.86132812 477.36132812 C-180.20353806 482.43744187 -184.97867274 487.08973611 -189.71653748 491.79170227 C-191.44372676 493.50594586 -193.1676132 495.22345302 -194.89074707 496.94177246 C-199.16809807 501.20586477 -203.45091759 505.46445061 -207.73358154 509.72320557 C-211.36397448 513.33375702 -214.99223537 516.94642642 -218.61778259 520.56184387 C-220.3033829 522.24103635 -221.99200141 523.91715076 -223.68078613 525.59313965 C-228.46425996 530.35402501 -233.12236583 535.15302041 -237.51037598 540.28552246 C-241.33147952 544.56740982 -245.45879302 548.56544084 -249.53134155 552.60650635 C-251.22492862 554.2871424 -252.91520777 555.97104629 -254.60473633 557.65576172 C-258.79861018 561.83638011 -262.99795399 566.0114898 -267.19714355 570.18676758 C-270.75707831 573.72685717 -274.31487821 577.26906722 -277.8699646 580.81402588 C-279.52232532 582.45998106 -281.17770465 584.10285645 -282.83325195 585.74560547 C-289.02391962 591.89978004 -289.02391962 591.89978004 -294.875 598.375 C-299.15662525 603.38039781 -303.85920087 607.97048386 -308.53134155 612.60650635 C-310.22492862 614.2871424 -311.91520777 615.97104629 -313.60473633 617.65576172 C-317.79861018 621.83638011 -321.99795399 626.0114898 -326.19714355 630.18676758 C-329.75707831 633.72685717 -333.31487821 637.26906722 -336.8699646 640.81402588 C-338.52232532 642.45998106 -340.17770465 644.10285645 -341.83325195 645.74560547 C-348.02391962 651.89978004 -348.02391962 651.89978004 -353.875 658.375 C-358.15662525 663.38039781 -362.85920087 667.97048386 -367.53134155 672.60650635 C-369.22492862 674.2871424 -370.91520777 675.97104629 -372.60473633 677.65576172 C-376.79861018 681.83638011 -380.99795399 686.0114898 -385.19714355 690.18676758 C-388.75707831 693.72685717 -392.31487821 697.26906722 -395.8699646 700.81402588 C-397.52232532 702.45998106 -399.17770465 704.10285645 -400.83325195 705.74560547 C-407.02391962 711.89978004 -407.02391962 711.89978004 -412.875 718.375 C-417.15662525 723.38039781 -421.85920087 727.97048386 -426.53134155 732.60650635 C-428.22492862 734.2871424 -429.91520777 735.97104629 -431.60473633 737.65576172 C-435.79861018 741.83638011 -439.99795399 746.0114898 -444.19714355 750.18676758 C-447.75707831 753.72685717 -451.31487821 757.26906722 -454.8699646 760.81402588 C-456.52232532 762.45998106 -458.17770465 764.10285645 -459.83325195 765.74560547 C-466.01747168 771.89261533 -466.01747168 771.89261533 -471.86132812 778.36132812 C-476.20353806 783.43744187 -480.97867274 788.08973611 -485.71653748 792.79170227 C-487.44372676 794.50594586 -489.1676132 796.22345302 -490.89074707 797.94177246 C-495.16809807 802.20586477 -499.45091759 806.46445061 -503.73358154 810.72320557 C-507.36397448 814.33375702 -510.99223537 817.94642642 -514.61778259 821.56184387 C-516.3033829 823.24103635 -517.99200141 824.91715076 -519.68078613 826.59313965 C-524.46425996 831.35402501 -529.12236583 836.15302041 -533.51037598 841.28552246 C-537.33147952 845.56740982 -541.45879302 849.56544084 -545.53134155 853.60650635 C-547.22492862 855.2871424 -548.91520777 856.97104629 -550.60473633 858.65576172 C-554.79861018 862.83638011 -558.99795399 867.0114898 -563.19714355 871.18676758 C-566.75707831 874.72685717 -570.31487821 878.26906722 -573.8699646 881.81402588 C-575.52232532 883.45998106 -577.17770465 885.10285645 -578.83325195 886.74560547 C-585.02391962 892.89978004 -585.02391962 892.89978004 -590.875 899.375 C-595.15662525 904.38039781 -599.85920087 908.97048386 -604.53134155 913.60650635 C-606.22492862 915.2871424 -607.91520777 916.97104629 -609.60473633 918.65576172 C-613.79861018 922.83638011 -617.99795399 927.0114898 -622.19714355 931.18676758 C-625.75707831 934.72685717 -629.31487821 938.26906722 -632.8699646 941.81402588 C-634.52232532 943.45998106 -636.17770465 945.10285645 -637.83325195 946.74560547 C-644.02391962 952.89978004 -644.02391962 952.89978004 -649.875 959.375 C-654.15662525 964.38039781 -658.85920087 968.97048386 -663.53134155 973.60650635 C-665.22492862 975.2871424 -666.91520777 976.97104629 -668.60473633 978.65576172 C-672.79861018 982.83638011 -676.99795399 987.0114898 -681.19714355 991.18676758 C-684.75707831 994.72685717 -688.31487821 998.26906722 -691.8699646 1001.81402588 C-693.52232532 1003.45998106 -695.17770465 1005.10285645 -696.83325195 1006.74560547 C-703.02391962 1012.89978004 -703.02391962 1012.89978004 -708.875 1019.375 C-713.15662525 1024.38039781 -717.85920087 1028.97048386 -722.53134155 1033.60650635 C-724.22492862 1035.2871424 -725.91520777 1036.97104629 -727.60473633 1038.65576172 C-731.79861018 1042.83638011 -735.99795399 1047.0114898 -740.19714355 1051.18676758 C-743.75707831 1054.72685717 -747.31487821 1058.26906722 -750.8699646 1061.81402588 C-752.52232532 1063.45998106 -754.17770465 1065.10285645 -755.83325195 1066.74560547 C-762.02391962 1072.89978004 -762.02391962 1072.89978004 -767.875 1079.375 C-772.15662525 1084.38039781 -776.85920087 1088.97048386 -781.53134155 1093.60650635 C-783.22492862 1095.2871424 -784.91520777 1096.97104629 -786.60473633 1098.65576172 C-790.79861018 1102.83638011 -794.99795399 1107.0114898 -799.19714355 1111.18676758 C-802.75707831 1114.72685717 -806.31487821 1118.26906722 -809.8699646 1121.81402588 C-811.52232532 1123.45998106 -813.17770465 1125.10285645 -814.83325195 1126.74560547 C-821.01747168 1132.89261533 -821.01747168 1132.89261533 -826.86132812 1139.36132812 C-831.20353806 1144.43744187 -835.97867274 1149.08973611 -840.71653748 1153.79170227 C-842.44372676 1155.50594586 -844.1676132 1157.22345302 -845.89074707 1158.94177246 C-850.16809807 1163.20586477 -854.45091759 1167.46445061 -858.73358154 1171.72320557 C-862.36397448 1175.33375702 -865.99223537 1178.94642642 -869.61778259 1182.56184387 C-871.3033829 1184.24103635 -872.99200141 1185.91715076 -874.68078613 1187.59313965 C-879.46425996 1192.35402501 -884.12236583 1197.15302041 -888.51037598 1202.28552246 C-892.33147952 1206.56740982 -896.45879302 1210.56544084 -900.53134155 1214.60650635 C-902.22492862 1216.2871424 -903.91520777 1217.97104629 -905.60473633 1219.65576172 C-909.79861018 1223.83638011 -913.99795399 1228.0114898 -918.19714355 1232.18676758 C-921.75707831 1235.72685717 -925.31487821 1239.26906722 -928.8699646 1242.81402588 C-930.52232532 1244.45998106 -932.17770465 1246.10285645 -933.83325195 1247.74560547 C-938.71513813 1252.60390515 -943.5127851 1257.4889108 -947.97712708 1262.74073792 C-962.12822266 1279.28487334 -980.03198236 1292.24835859 -1001.375 1297.375 C-1002.30183594 1297.59929687 -1003.22867188 1297.82359375 -1004.18359375 1298.0546875 C-1028.99627187 1303.07916878 -1054.6959235 1297.45920793 -1075.828125 1283.8671875 C-1081.56690345 1279.96744088 -1086.51419087 1275.30209289 -1091.375 1270.375 C-1092.37273437 1269.37533203 -1092.37273437 1269.37533203 -1093.390625 1268.35546875 C-1138.22070655 1220.39535899 -1140.15495628 1042.29680581 -1138.8274106 968.00890288 C-1134.72999115 852.89861214 -1094.94617368 768.35212739 -966.6640625 614.1953125 C-965.9492577 613.4038889 -965.9492577 613.4038889 -965.2200124 612.59647694 C-915.96480452 558.08407158 -864.35747113 505.9896907 -804.76326716 448.78873503 C-803.66148209 447.73207391 -802.55970075 446.67540888 -801.45792315 445.61873996 C-800.91220252 445.09537517 -800.36648189 444.57201038 -799.80422427 444.03278605 C-797.59712428 441.91604077 -795.39013884 439.79917613 -793.18324029 437.68222083 C-792.07851489 436.62257569 -790.97371089 435.56301247 -789.86882839 434.50353112 C-772.61535408 417.95736932 -755.56322502 401.22479305 -738.66252899 384.31859589 C-738.11977955 383.77579165 -737.5770301 383.23298741 -737.0178337 382.67373455 C-732.62961424 378.28504234 -728.24217083 373.89557442 -723.85555089 369.50528343 C-670.28473016 315.890962 -615.95844439 263.07819641 0 0 Z " fill="#09A6FA" transform="translate(1124.375,-41.375)"/>
<path d="M0 0 C0.76617984 0.68353184 1.53235967 1.36706368 2.32175708 2.07130861 C11.98771159 10.81533644 21.18597061 20.01598684 30.41290283 29.21862793 C32.266856 31.06425781 34.12100444 32.90969156 35.97533011 34.75494719 C40.51692514 39.27515958 45.05588884 43.79800556 49.59397333 48.32174206 C53.3679149 52.08361325 57.14297994 55.844354 60.91873741 59.60440254 C61.46563075 60.14902457 62.01252408 60.6936466 62.57598994 61.25477233 C63.40171425 62.07706681 63.40171425 62.07706681 64.24411985 62.91597331 C104.80473162 103.30815191 145.32371389 143.74217601 185.83378196 184.18503841 C191.8504618 190.19170777 197.86733387 196.19818457 203.88427734 202.20458984 C204.54907739 202.86823443 205.21387744 203.53187901 205.89882294 204.21563404 C227.482769 225.7617979 249.085782 247.28871999 270.69915966 268.80535715 C292.93376172 290.94061895 315.15044252 313.09370704 337.34414098 335.26998408 C340.47655858 338.39993238 343.60917364 341.52968297 346.74190521 344.65931702 C347.35841547 345.27523212 347.97492573 345.89114723 348.61011812 346.52572643 C358.5364777 356.44147931 368.48146972 366.33833983 378.43346709 376.22835352 C388.42657731 386.16006001 398.39949998 396.11167738 408.35205504 406.08402669 C414.26692686 412.00945352 420.19668321 417.91901912 426.148737 423.80710082 C430.58719806 428.2012103 434.99656005 432.62345495 439.39514074 437.05746561 C441.18191857 438.84960315 442.97811335 440.63240929 444.78433862 442.40494484 C447.23324984 444.81085846 449.64600362 447.24805817 452.05255508 449.69623566 C452.76626733 450.3813366 453.47997957 451.06643754 454.21531945 451.77229911 C458.0875695 455.79622034 459.41252675 458.35014045 459.43421531 464.01898527 C459.32401295 465.68197287 459.19125758 467.34437539 459 469 C376.18998543 475.31245103 293.34592443 479.86637803 195.4041118 482.79405451 C192.09843146 482.88917042 188.79280726 482.98595897 185.48722273 483.0843482 C106.76565763 485.42508833 27.35947489 486.81282088 -212.03722575 402.65634208 C-226.13999448 389.20531916 -238.87094381 374.60645587 -251.17277354 359.51178581 C-252.81880337 357.49226637 -254.47053849 355.47751884 -256.12294626 353.4632163 C-283.78014127 319.67099733 -308.03801834 284.33319435 -329 246 C-332.25909802 247.39995461 -334.10306019 248.97827832 -336.359828 251.69753456 C-337.00876109 252.47134273 -337.65769418 253.24515091 -338.32629192 254.04240781 C-339.03194856 254.89648605 -339.73760521 255.75056429 -340.46464539 256.63052368 C-342.04237016 258.51217706 -343.62071857 260.39330765 -345.19958973 262.27399921 C-346.04533578 263.28532213 -346.89108182 264.29664504 -347.76245654 265.33861411 C-373.89967909 296.55662962 -401.08277512 326.83675803 -428.82874256 356.62900072 C-430.06598537 357.95759567 -431.3026743 359.28670662 -432.53880352 360.61633772 C-544.81437724 481.37147864 -544.81437724 481.37147864 -629.87660217 484.4720459 C-644.07867371 484.80142362 -658.1652827 483.99416122 -672.3125 482.8125 C-673.4674155 482.71882676 -674.622331 482.62515352 -675.81224394 482.5286417 C-705.27854081 480.09623083 -734.20829604 475.71541707 -763 469 C-761.64825433 465.9863896 -760.14225099 463.89234375 -757.81127489 461.56172723 C-757.14945819 460.89515972 -756.48764149 460.22859221 -755.80576974 459.54182568 C-754.7100826 458.45359081 -754.7100826 458.45359081 -753.59226036 457.34337139 C-752.81569755 456.56420129 -752.03913474 455.7850312 -751.23903972 454.98224989 C-748.6140821 452.35095457 -745.98200234 449.72689916 -743.34994507 447.10270691 C-741.45608479 445.20725959 -739.56262455 443.31142027 -737.66964686 441.41509229 C-733.54190951 437.28166106 -729.41045429 433.15197514 -725.27656555 429.02469635 C-719.1292079 422.88714106 -712.98756813 416.74388805 -706.84708021 410.59946071 C-696.51643729 400.26253561 -686.18106552 389.93035076 -675.84293747 379.60091209 C-665.59921927 369.36580206 -655.35735164 359.12884657 -645.11803055 348.88933754 C-644.48160951 348.25290885 -643.84518846 347.61648017 -643.18948194 346.96076576 C-640.60614487 344.37738778 -638.02282015 341.79399745 -635.43951227 339.21059028 C-611.18970984 314.95988115 -586.93448096 290.71460628 -562.67653535 266.47204303 C-541.12303119 244.93215599 -519.57321612 223.38858541 -498.02685547 201.84155273 C-496.64405823 200.45871508 -495.26126096 199.07587746 -493.87846367 197.69303986 C-493.19483789 197.00939373 -492.51121211 196.3257476 -491.8068704 195.62138492 C-488.36561353 192.18002725 -484.92435156 188.7386747 -481.48308372 185.297328 C-480.80418251 184.61841007 -480.1252813 183.93949214 -479.42580732 183.24000095 C-461.42795905 165.24178742 -443.42765859 147.24602679 -425.42652667 129.2510975 C-424.78607298 128.61086409 -424.1456193 127.97063068 -423.48575793 127.31099626 C-420.91029582 124.73642238 -418.33483363 122.16184859 -415.75935848 119.58728776 C-406.79952979 110.63061846 -397.84052616 101.67312464 -388.88205588 92.71509666 C-377.33376964 81.16740773 -365.78378513 69.62142164 -354.23088066 58.07835289 C-348.12108761 51.97367183 -342.01264722 45.86764483 -335.90617043 39.75964648 C-331.82615806 35.67889895 -327.74432644 31.5999772 -323.66101299 27.52253284 C-321.33506573 25.19983091 -319.01017486 22.87608937 -316.68692736 20.55068662 C-314.18117436 18.04286638 -311.67237249 15.53813573 -309.16278648 13.03415203 C-308.44637538 12.31568561 -307.72996429 11.5972192 -306.99184376 10.85698107 C-243.09961876 -52.77472928 -148.50058058 -73.04405851 0 0 Z " fill="#0BD0F7" transform="translate(1049,796)"/>
<path d="M0 0 C276.82540036 0 276.82540036 0 294.9375 5.625 C295.75541016 5.87588379 296.57332031 6.12676758 297.41601562 6.38525391 C335.57339926 18.62924195 364.87870706 46.76530198 383.13818359 81.85522461 C400.75776589 117.13592975 402.98164516 158.67603377 390.7890625 196.01171875 C381.41760487 223.03257883 364.03625626 243.28894949 344.09286499 263.15437317 C342.60698158 264.64184803 341.12153608 266.12976044 339.63648665 267.61806792 C335.58597593 271.6749469 331.52931259 275.72562275 327.47154689 279.7752434 C323.08496495 284.15521342 318.70418703 288.54098212 314.32266235 292.92601013 C306.74090102 300.51221943 299.15549594 308.09476485 291.56739426 315.67463112 C283.61421278 323.61918281 275.6629045 331.56560109 267.7141304 339.51456261 C266.97101407 340.2576904 266.97101407 340.2576904 266.21288529 341.01583089 C264.20176003 343.02699705 262.19064713 345.03817557 260.17955106 347.04937093 C241.34393703 365.88588955 222.50291413 384.71698921 203.65914405 403.54534828 C186.91090124 420.27994446 170.16637853 437.01825359 153.42529297 453.76000977 C152.34863738 454.83670576 151.27198177 455.91340173 150.19532613 456.99009768 C149.66304916 457.522395 149.13077219 458.05469233 148.58236561 458.60311988 C145.90305203 461.28253425 143.22373334 463.96194352 140.5444088 466.64134693 C140.01583448 467.16993797 139.48726015 467.698529 138.94266843 468.24313795 C124.95052816 482.23564295 110.9559395 496.22569865 96.96051276 510.21491641 C96.46308198 510.71212691 95.9656512 511.20933742 95.45314677 511.72161491 C93.45286586 513.72100759 91.45258487 515.7204002 89.4522909 517.71977982 C82.48548388 524.68342376 75.51950547 531.64789561 68.5540589 538.61290033 C59.58816884 547.57819455 50.6205377 556.54174134 41.65007095 565.50245682 C37.32265152 569.82524329 32.99603972 574.14883008 28.67156219 578.47455978 C24.72036104 582.42684962 20.76688729 586.37685067 16.81151123 590.32496222 C15.37421537 591.76043309 13.93777746 593.19676356 12.50224392 594.63399682 C10.56488785 596.57339425 8.62453946 598.50974503 6.68334007 600.44529438 C6.11475574 601.01593403 5.54617141 601.58657368 4.96035725 602.17450544 C1.11415513 606 1.11415513 606 0 606 C0 406.02 0 206.04 0 0 Z " fill="#0884FD" transform="translate(9,7)"/>
</svg>
